<svg width="16" height="17" viewBox="0 0 16 17" fill="none" xmlns="http://www.w3.org/2000/svg">
<path d="M11.7238 6.83751C11.6607 6.32325 11.503 5.91946 11.223 5.5618C10.8594 5.10126 10.3948 4.82547 9.7069 4.66188C9.2586 4.55284 9.07748 4.56536 8.91534 4.71383C8.76432 4.85293 8.73483 5.13179 8.85024 5.31238C8.93141 5.44344 9.02504 5.4904 9.28547 5.54164C9.63226 5.60561 9.87192 5.68863 10.0899 5.81359C10.5527 6.08144 10.7681 6.50059 10.7912 7.17917C10.802 7.49779 10.8295 7.59574 10.9405 7.70875C11.1462 7.91531 11.5124 7.87514 11.6677 7.62794C11.7247 7.53477 11.7334 7.49422 11.7394 7.27787C11.7434 7.14393 11.7376 6.94456 11.7238 6.83751Z" fill="#BB8C5F"/>
<path d="M13.5362 7.41734C13.4448 5.84182 12.8301 4.57424 11.73 3.68239C11.1101 3.18126 10.3609 2.83667 9.53963 2.66909C9.23879 2.60916 8.6849 2.56058 8.58987 2.58836C8.5002 2.6141 8.37338 2.71143 8.31685 2.79945C8.25707 2.89491 8.2436 3.10803 8.29459 3.2313C8.3769 3.43738 8.53002 3.51019 8.95883 3.5478C9.6199 3.60578 10.3017 3.83862 10.8169 4.18331C11.4051 4.57578 11.8726 5.11258 12.1751 5.74337C12.4365 6.28534 12.5972 7.06639 12.5927 7.76582C12.5912 8.01878 12.6302 8.16164 12.7317 8.26608C12.8849 8.42668 13.1081 8.46179 13.3052 8.35512C13.5236 8.23999 13.5746 8.03789 13.5362 7.41734Z" fill="#BB8C5F"/>
<path d="M15.5416 13.4847C15.5109 13.3947 15.4392 13.2558 15.3879 13.176C15.065 12.6873 13.3305 11.3264 12.4644 10.8813C11.9699 10.6267 11.6035 10.5418 11.3319 10.6215C11.0398 10.7039 10.8861 10.8402 10.3967 11.4499C10.1994 11.6943 9.99703 11.9232 9.94321 11.9592C9.80997 12.0518 9.54863 12.1265 9.36416 12.1265C8.93626 12.1239 8.15992 11.846 7.56292 11.4807C7.09916 11.1978 6.50476 10.691 6.04866 10.1894C5.51058 9.60027 5.14423 9.08062 4.85466 8.49409C4.4806 7.74035 4.3858 7.27986 4.54207 6.94285C4.58051 6.85797 4.63177 6.76795 4.6548 6.73961C4.67787 6.71393 4.91874 6.51582 5.18517 6.29973C5.70789 5.883 5.79243 5.78782 5.88979 5.50227C6.01277 5.13952 5.97949 4.76909 5.78988 4.39609C5.64382 4.11311 5.26206 3.49571 4.98535 3.09698C4.61895 2.57221 3.7068 1.4506 3.52486 1.29878C3.1969 1.03127 2.77674 0.984936 2.31294 1.16505C1.8236 1.35542 0.906301 2.09629 0.514274 2.61337C0.160689 3.08155 0.0249358 3.41339 0.0044171 3.85072C-0.0135058 4.21085 0.0172294 4.36006 0.206837 4.82056C1.69036 8.43233 3.90407 11.3161 6.94544 13.6057C8.534 14.8018 10.1815 15.7125 11.8905 16.3351C12.8872 16.6978 13.3202 16.7158 13.8301 16.4174C14.0453 16.2888 14.5782 15.7408 14.8754 15.3421C15.3674 14.6784 15.5493 14.3723 15.6005 14.1279C15.6364 13.9607 15.6082 13.67 15.5416 13.4847V13.4847Z" fill="#BB8C5F"/>
<path d="M15.3812 7.77921C15.3483 6.888 15.1987 6.15699 14.8866 5.34199C14.5784 4.54029 14.2666 4.01714 13.6776 3.30956C13.1208 2.64613 12.6883 2.26732 12.0024 1.84565C11.0455 1.25815 9.88086 0.86936 8.57571 0.705852C8.13061 0.648707 8.02992 0.652789 7.89337 0.74413C7.62875 0.917164 7.63229 1.34875 7.89773 1.51919C7.9856 1.57341 8.06357 1.59316 8.4196 1.63988C8.96614 1.71364 9.31758 1.78316 9.73459 1.89722C11.3698 2.34535 12.6273 3.26134 13.468 4.62109C14.1716 5.75445 14.4636 6.88789 14.4221 8.33549C14.4077 8.82487 14.4182 8.911 14.4928 9.02858C14.6357 9.24774 15.0126 9.29109 15.2059 9.10923C15.3262 8.9984 15.3489 8.91519 15.3726 8.49633C15.3839 8.27783 15.3864 7.95527 15.3812 7.77921Z" fill="#BB8C5F"/>
</svg>
