<svg width="17" height="17" viewBox="0 0 17 17" fill="none" xmlns="http://www.w3.org/2000/svg">
<path fill-rule="evenodd" clip-rule="evenodd" d="M16.7196 8.33088C16.7177 12.9198 12.9847 16.6538 8.39479 16.6556H8.39135C6.99808 16.6552 5.62905 16.3056 4.41312 15.6423L0 16.8L1.18103 12.4862C0.452511 11.2236 0.069171 9.79153 0.0697957 8.32431C0.0716219 3.73432 3.80614 0 8.39471 0C10.6217 0.000961147 12.7119 0.867921 14.2836 2.44149C15.8553 4.01498 16.7205 6.10653 16.7196 8.33088ZM1.99877 14.8222L4.61758 14.1353L4.87024 14.2852C5.9326 14.9157 7.15037 15.2492 8.39198 15.2497H8.39478C12.2085 15.2497 15.3124 12.1457 15.314 8.33041C15.3147 6.48155 14.5957 4.74314 13.2893 3.43525C11.9829 2.12736 10.2456 1.40674 8.39751 1.4061C4.58086 1.4061 1.47686 4.50982 1.47534 8.3248C1.47481 9.63223 1.84062 10.9055 2.53325 12.0071L2.69777 12.2689L1.99877 14.8222Z" fill="#BB8C5F"/>
<path d="M12.4241 10.8306C12.3721 10.7439 12.2334 10.6918 12.0254 10.5877C11.8174 10.4835 10.7948 9.98039 10.604 9.91091C10.4134 9.84152 10.2747 9.80685 10.136 10.015C9.9974 10.2232 9.59876 10.6918 9.47741 10.8306C9.35607 10.9694 9.23472 10.9868 9.02679 10.8827C8.81878 10.7786 8.14854 10.5589 7.35401 9.85026C6.73563 9.29868 6.31817 8.61754 6.19684 8.40929C6.0755 8.20104 6.1839 8.08851 6.28803 7.98478C6.38162 7.89155 6.49606 7.74177 6.60006 7.62034C6.70405 7.49892 6.73872 7.41209 6.80806 7.27337C6.87739 7.13448 6.84273 7.01306 6.79072 6.90893C6.73872 6.80481 6.32272 5.78094 6.14939 5.36444C5.98053 4.95883 5.80905 5.01378 5.68138 5.00737C5.56018 5.00128 5.42136 5 5.28271 5C5.14404 5 4.91868 5.05206 4.72802 5.26031C4.53736 5.46856 4 5.97181 4 6.99559C4 8.01946 4.74534 9.00857 4.84935 9.14738C4.95335 9.28626 6.31611 11.3872 8.40276 12.2882C8.89904 12.5026 9.28646 12.6306 9.58858 12.7264C10.0869 12.8848 10.5404 12.8624 10.8987 12.8088C11.2984 12.7491 12.1294 12.3057 12.3028 11.8198C12.476 11.3338 12.476 10.9174 12.4241 10.8306Z" fill="#BB8C5F"/>
</svg>
